<?xml version="1.0" standalone="no"?>
<!DOCTYPE svg PUBLIC "-//W3C//DTD SVG 20010904//EN"
 "http://www.w3.org/TR/2001/REC-SVG-20010904/DTD/svg10.dtd">
<svg version="1.0" xmlns="http://www.w3.org/2000/svg"
 width="500.000000pt" height="500.000000pt" viewBox="0 0 500.000000 500.000000"
 preserveAspectRatio="xMidYMid meet">

<g transform="translate(0.000000,500.000000) scale(0.100000,-0.100000)"
fill="#000000" stroke="none">
<path d="M1702 3682 c-25 -17 -2 -42 39 -42 28 0 42 -6 54 -22 24 -35 46 -119
53 -210 6 -77 9 -83 30 -86 23 -4 23 -3 17 70 -8 86 -28 176 -52 225 -26 56
-101 90 -141 65z"/>
<path d="M1934 3629 c-10 -17 13 -33 48 -33 25 -1 37 -8 54 -34 28 -40 54
-152 54 -226 0 -46 4 -57 21 -66 11 -7 23 -9 27 -6 9 9 -15 194 -33 254 -9 29
-30 68 -46 87 -27 30 -37 35 -74 35 -24 0 -47 -5 -51 -11z"/>
<path d="M1773 3234 c-42 -21 -57 -61 -50 -136 8 -90 67 -201 167 -316 106
-121 143 -145 230 -150 113 -7 196 43 249 150 25 50 31 73 31 127 -1 86 -24
138 -84 183 -93 72 -346 158 -460 158 -28 0 -65 -7 -83 -16z m476 -235 c17
-49 14 -79 -7 -79 -13 0 -21 13 -30 46 -7 25 -10 50 -7 55 12 19 33 8 44 -22z"/>
<path d="M2394 2702 c-133 -63 -133 -243 0 -303 111 -50 248 17 263 129 17
130 -138 232 -263 174z"/>
<path d="M2899 2519 c-107 -15 -205 -60 -251 -114 -10 -11 -23 -37 -30 -59
-10 -34 -9 -43 10 -80 44 -81 177 -143 333 -153 l86 -6 53 -119 53 -119 116 3
c100 3 116 5 119 20 3 15 -9 18 -103 20 l-106 3 -40 89 c-22 50 -38 95 -35
102 2 6 26 14 53 18 68 9 182 65 221 110 58 67 37 157 -49 212 -107 67 -275
96 -430 73z"/>
<path d="M2202 2295 c-35 -63 -67 -117 -71 -119 -5 -3 -37 10 -72 29 -35 19
-66 35 -69 35 -3 0 -44 -76 -90 -170 l-85 -170 -112 0 c-106 0 -113 -1 -113
-20 0 -19 7 -20 128 -20 l128 0 74 155 c40 86 77 158 81 161 5 2 39 -11 77
-30 l70 -35 76 135 c42 74 76 138 76 143 0 7 -25 22 -33 21 -1 0 -30 -52 -65
-115z"/>
<path d="M2465 2298 c-3 -7 30 -141 73 -298 l78 -285 77 -3 c72 -3 77 -1 77
18 0 18 -6 20 -60 20 l-59 0 -12 43 c-6 23 -40 147 -75 274 -35 128 -64 235
-64 238 0 11 -31 4 -35 -7z"/>
</g>
</svg>
